<svg width="30" height="30" viewBox="0 0 30 30" fill="none" xmlns="http://www.w3.org/2000/svg">
<circle cx="15" cy="15" r="15" fill="#F22B44"/>
<path d="M14.5 11.6055C13.9349 11.6055 13.4062 11.7513 12.9141 12.043C12.4401 12.3164 12.0573 12.6992 11.7656 13.1914C11.4922 13.6654 11.3555 14.1849 11.3555 14.75C11.3555 15.3151 11.4922 15.8438 11.7656 16.3359C12.0573 16.8099 12.4401 17.1927 12.9141 17.4844C13.4062 17.7578 13.9349 17.8945 14.5 17.8945C15.0651 17.8945 15.5846 17.7578 16.0586 17.4844C16.5508 17.1927 16.9336 16.8099 17.207 16.3359C17.4987 15.8438 17.6445 15.3151 17.6445 14.75C17.6445 14.1849 17.4987 13.6654 17.207 13.1914C16.9336 12.6992 16.5508 12.3164 16.0586 12.043C15.5846 11.7513 15.0651 11.6055 14.5 11.6055ZM14.5 16.8008C13.9349 16.8008 13.4518 16.6003 13.0508 16.1992C12.6497 15.7982 12.4492 15.3151 12.4492 14.75C12.4492 14.1849 12.6497 13.7018 13.0508 13.3008C13.4518 12.8997 13.9349 12.6992 14.5 12.6992C15.0651 12.6992 15.5482 12.8997 15.9492 13.3008C16.3503 13.7018 16.5508 14.1849 16.5508 14.75C16.5508 15.3151 16.3503 15.7982 15.9492 16.1992C15.5482 16.6003 15.0651 16.8008 14.5 16.8008ZM18.5195 11.4688C18.5013 11.6693 18.4193 11.8424 18.2734 11.9883C18.1458 12.1341 17.9818 12.207 17.7812 12.207C17.5807 12.207 17.4076 12.1341 17.2617 11.9883C17.1159 11.8424 17.043 11.6693 17.043 11.4688C17.043 11.2682 17.1159 11.0951 17.2617 10.9492C17.4076 10.8034 17.5807 10.7305 17.7812 10.7305C17.9818 10.7305 18.1549 10.8034 18.3008 10.9492C18.4466 11.0951 18.5195 11.2682 18.5195 11.4688ZM20.5977 12.207C20.5612 11.6784 20.4792 11.2227 20.3516 10.8398C20.1875 10.3841 19.9323 9.99219 19.5859 9.66406C19.2578 9.31771 18.8659 9.0625 18.4102 8.89844C18.0273 8.77083 17.5716 8.69792 17.043 8.67969C16.5326 8.64323 15.6849 8.625 14.5 8.625C13.3151 8.625 12.4583 8.64323 11.9297 8.67969C11.4193 8.69792 10.9727 8.77083 10.5898 8.89844C10.1341 9.0625 9.73307 9.31771 9.38672 9.66406C9.05859 9.99219 8.8125 10.3841 8.64844 10.8398C8.52083 11.2227 8.4388 11.6784 8.40234 12.207C8.38411 12.7174 8.375 13.5651 8.375 14.75C8.375 15.9349 8.38411 16.7917 8.40234 17.3203C8.4388 17.8307 8.52083 18.2773 8.64844 18.6602C8.8125 19.1159 9.05859 19.5169 9.38672 19.8633C9.73307 20.1914 10.1341 20.4284 10.5898 20.5742C10.9727 20.7201 11.4193 20.8021 11.9297 20.8203C12.4583 20.8568 13.3151 20.875 14.5 20.875C15.6849 20.875 16.5326 20.8568 17.043 20.8203C17.5716 20.8021 18.0273 20.7292 18.4102 20.6016C18.8659 20.4375 19.2578 20.1914 19.5859 19.8633C19.9323 19.5169 20.1875 19.1159 20.3516 18.6602C20.4792 18.2773 20.5521 17.8307 20.5703 17.3203C20.6068 16.7917 20.625 15.9349 20.625 14.75C20.625 13.5651 20.6159 12.7174 20.5977 12.207ZM19.2852 18.3594C19.0664 18.9062 18.6745 19.2982 18.1094 19.5352C17.8177 19.6445 17.3255 19.7174 16.6328 19.7539C16.25 19.7721 15.6849 19.7812 14.9375 19.7812H14.0625C13.3333 19.7812 12.7682 19.7721 12.3672 19.7539C11.6927 19.7174 11.2005 19.6445 10.8906 19.5352C10.3438 19.3164 9.95182 18.9245 9.71484 18.3594C9.60547 18.0495 9.53255 17.5573 9.49609 16.8828C9.47786 16.4818 9.46875 15.9167 9.46875 15.1875V14.3125C9.46875 13.5833 9.47786 13.0182 9.49609 12.6172C9.53255 11.9245 9.60547 11.4323 9.71484 11.1406C9.93359 10.5755 10.3255 10.1836 10.8906 9.96484C11.2005 9.85547 11.6927 9.78255 12.3672 9.74609C12.7682 9.72786 13.3333 9.71875 14.0625 9.71875H14.9375C15.6667 9.71875 16.2318 9.72786 16.6328 9.74609C17.3255 9.78255 17.8177 9.85547 18.1094 9.96484C18.6745 10.1836 19.0664 10.5755 19.2852 11.1406C19.3945 11.4323 19.4674 11.9245 19.5039 12.6172C19.5221 13 19.5312 13.5651 19.5312 14.3125V15.1875C19.5312 15.9167 19.5221 16.4818 19.5039 16.8828C19.4674 17.5573 19.3945 18.0495 19.2852 18.3594Z" fill="#FFFEF3"/>
</svg>
