<svg width="30" height="30" viewBox="0 0 30 30" fill="none" xmlns="http://www.w3.org/2000/svg">
<circle cx="15" cy="15" r="15" fill="#F22B44"/>
<path d="M20.5977 10.457L18.7383 19.1523C18.6654 19.4622 18.5378 19.6628 18.3555 19.7539C18.1914 19.8268 17.9818 19.7904 17.7266 19.6445L14.9102 17.5664L13.543 18.8789C13.4518 18.9701 13.3789 19.0339 13.3242 19.0703C13.2331 19.125 13.1146 19.1523 12.9688 19.1523L13.1875 16.2812L18.4102 11.5508C18.4831 11.4961 18.5013 11.4505 18.4648 11.4141C18.4466 11.3594 18.3919 11.3411 18.3008 11.3594C18.2279 11.3594 18.1458 11.3867 18.0547 11.4414L11.6016 15.5156L8.8125 14.6406C8.5026 14.5495 8.35677 14.4128 8.375 14.2305C8.39323 14.0482 8.58464 13.8841 8.94922 13.7383L19.8047 9.55469C20.0781 9.46354 20.2969 9.5 20.4609 9.66406C20.625 9.8099 20.6706 10.0742 20.5977 10.457Z" fill="#FFFEF3"/>
</svg>
